<html>
<head>
<meta charset="UTF-8">
<meta name="viewport" content="width=device-width, initial-scale=1.0"/>

<style>
.comment
{
    padding-left: 20px;
    margin-top: 4px;
    margin-right: 4px;
    margin-bottom: 4px;
    border: 2px #000 solid;
}
.submission
{
    border: 4px #00f solid;
    padding-left: 20px;
}
.hidden
{
    display: none;
}
</style>
</head>
<body><div class="submission" id="t3_5xn69r">
    <p class="userinfo">
        <a href="https://www.reddit.com/u/jodorowsthesky">jodorowsthesky</a>
        <span class="score"> | 50 points</span>
        <span class="timestamp"> | Mar 05 2017 15:05:52</span>
    </p>
    <strong>[MOVIE] Tank Girl (1995) [1080p][x264][2GB]</strong>
    <p><p>.nz/#!IVo10Y5Y!0MZEnXQpQFnWnsPAIPWWi1SImS1w8T4CvW5Y7bOfKBk  </p>
<pre><code>Format                                   : MPEG-4
Format profile                           : Base Media
Codec ID                                 : isom (isom/iso2/avc1/mp41)
File size                                : 1.99 GiB
Duration                                 : 1 h 44 min
Overall bit rate                         : 2 730 kb/s
Movie name                               : Tank.Girl.1995.1080p.BluRay.H264.AAC-RARBG
Encoded date                             : UTC 2016-01-21 07:59:48
Tagged date                              : UTC 2016-01-21 07:59:48
Writing application                      : Lavf56.40.101
Comment                                  : Tank.Girl.1995.1080p.BluRay.H264.AAC-RARBG

Video
ID                                       : 1
Format                                   : AVC
Format/Info                              : Advanced Video Codec
Format profile                           : High@L4.1
Format settings, CABAC                   : Yes
Format settings, ReFrames                : 4 frames
Codec ID                                 : avc1
Codec ID/Info                            : Advanced Video Coding
Duration                                 : 1 h 44 min
Bit rate                                 : 2 500 kb/s
Width                                    : 1 920 pixels
Height                                   : 824 pixels
Display aspect ratio                     : 2.35:1
Frame rate mode                          : Constant
Frame rate                               : 23.976 (23976/1000) FPS
Color space                              : YUV
Chroma subsampling                       : 4:2:0
Bit depth                                : 8 bits
Scan type                                : Progressive
Bits/(Pixel*Frame)                       : 0.066
Stream size                              : 1.82 GiB (92%)
Writing library                          : x264 core 148 r2638M 7599210
Encoding settings                        : cabac=1 / ref=4 / deblock=1:-1:-1 / analyse=0x3:0x113 / me=umh / subme=9 / psy=1 / psy_rd=1.00:0.15 / mixed_ref=1 / me_range=24 / chroma_me=1 / trellis=2 / 8x8dct=1 / cqm=0 / deadzone=21,11 / fast_pskip=1 / chroma_qp_offset=-3 / threads=32 / lookahead_threads=4 / sliced_threads=0 / nr=0 / decimate=1 / interlaced=0 / bluray_compat=0 / constrained_intra=0 / bframes=3 / b_pyramid=2 / b_adapt=2 / b_bias=0 / direct=3 / weightb=1 / open_gop=0 / weightp=2 / keyint=250 / keyint_min=25 / scenecut=40 / intra_refresh=0 / rc_lookahead=50 / rc=2pass / mbtree=1 / bitrate=2500 / ratetol=1.0 / qcomp=0.60 / qpmin=0 / qpmax=69 / qpstep=4 / cplxblur=20.0 / qblur=0.5 / vbv_maxrate=31250 / vbv_bufsize=31250 / nal_hrd=none / filler=0 / ip_ratio=1.40 / aq=3:1.00
Encoded date                             : UTC 2016-01-21 07:59:48
Tagged date                              : UTC 2016-01-21 07:59:48

Audio
ID                                       : 2
Format                                   : AAC
Format/Info                              : Advanced Audio Codec
Format profile                           : LC
Codec ID                                 : 40
Duration                                 : 1 h 44 min
Bit rate mode                            : Constant
Bit rate                                 : 224 kb/s
Channel(s)                               : 2 channels
Channel(s)_Original                      : 6 channels
Channel positions                        : Front: L C R, Side: L R, LFE
Sampling rate                            : 48.0 kHz
Frame rate                               : 46.875 FPS (1024 spf)
Compression mode                         : Lossy
Stream size                              : 167 MiB (8%)
Language                                 : English
Default                                  : Yes
Alternate group                          : 1
Encoded date                             : UTC 2016-01-21 07:59:48
Tagged date                              : UTC 2016-01-21 07:59:48
</code></pre></p>
    <p class="toolbar">
        <a href="https://www.reddit.com/r/megalinks/comments/5xn69r">permalink</a>
    </p>
</div>
<div class="comment" id="t1_dejcan7">
    <p class="userinfo">
        <a
        class="toggle_hide_button"
        href="javascript:void(0)"
        onclick="toggle_collapse(this.parentElement.parentElement)">[-]
        </a>
        <a href="https://www.reddit.com/u/boltrop">boltrop</a>
        <span class="score"> | 4 points</span>
        <span class="timestamp"> | Mar 05 2017 15:09:06</span>
    </p>
    <div class="collapsible">
        <h3><a href="https://images-na.ssl-images-amazon.com/images/M/MV5BMjE3ODMxNzU3NV5BMl5BanBnXkFtZTcwOTQzMTM3NA@@._V1_.jpg">Tank Girl</a> (1995)</h3>
<p><strong>Genre</strong>: Action, Comedy, Sci-Fi</p>
<p><strong>Rating</strong>:  5.2 (25519 votes)</p>
<p><strong>Certification</strong>: R</p>
<p><strong>Runtime</strong>: 104 min</p>
<hr>
<blockquote>
<p><strong>Director(s)</strong>: <a href="https://www.imdb.com/name/nm0003080/">Rachel Talalay</a></p>
<p><strong>Writer(s)</strong>: <a href="https://www.imdb.com/name/nm0551875/">Alan Martin</a>, <a href="https://www.imdb.com/name/nm0382114/">Jamie Hewlett</a></p>
<p><strong>Cast</strong>: <a href="https://www.imdb.com/name/nm0001614/">Lori Petty</a>, <a href="https://www.imdb.com/name/nm0001384/">Ice-T</a>, <a href="https://www.imdb.com/name/nm0915208/">Naomi Watts</a>, <a href="https://www.imdb.com/name/nm0367496/">Don Harvey</a></p>
<p><strong>Plot</strong>: A girl is among the few survivors of a dystopian Earth. Riding a war tank, she fights against the tyranny of a mega-corporation that dominates the remaining potable water supply of the planet.</p>
</blockquote>
<hr>
<p>^This ^summary ^is ^taken ^from <a href="https://www.imdb.com/title/tt0114614/">^imdb.com</a> ^| ^For ^feedback ^or ^suggestions ^contact <a href="http://www.reddit.com/message/compose/?to=indigo6alpha">^/u/indigo6alpha</a></p>
        <p class="toolbar">
            <a href="https://www.reddit.com/r/megalinks/comments/5xn69r/_/dejcan7">permalink</a>
        </p>
        
    </div>
</div>

<div class="comment" id="t1_dejduhn">
    <p class="userinfo">
        <a
        class="toggle_hide_button"
        href="javascript:void(0)"
        onclick="toggle_collapse(this.parentElement.parentElement)">[-]
        </a>
        <a href="https://www.reddit.com/u/SubZorro">SubZorro</a>
        <span class="score"> | 1 points</span>
        <span class="timestamp"> | Mar 05 2017 15:51:09</span>
    </p>
    <div class="collapsible">
        <h5>Subtitles for this movie:</h5>
<hr>
<blockquote>
<ul>
<li>
<p><strong>Tank Girl-English</strong> - <code>1 CD</code> - <a href="http://dl.opensubtitles.org/en/download/vrf-d75d5b04/sub/4969324">Download Subtitle</a></p>
</li>
<li>
<p><strong>Tank.Girl.1995.720p.BluRay.x264.YIFY</strong> - <code>1 CD</code> - <a href="http://dl.opensubtitles.org/en/download/vrf-6efa34c0/sub/5788265">Download Subtitle</a></p>
</li>
<li>
<p><strong>Tank Girl (1995)</strong> - <code>2 CD</code> - <a href="http://dl.opensubtitles.org/en/download/vrf-37c38060/sub/197543">Download Subtitle</a></p>
</li>
<li>
<p><strong>Tank.Girl.1995.1080p.BluRay.x264.YIFY</strong> - <code>1 CD</code> - <a href="http://dl.opensubtitles.org/en/download/vrf-a8e367c8/sub/5696633">Download Subtitle</a></p>
</li>
<li>
<p><strong>Tank Girl</strong> - <code>1 CD</code> - <a href="http://dl.opensubtitles.org/en/download/vrf-4a154064/sub/147287">Download Subtitle</a></p>
</li>
</ul>
</blockquote>
<hr>
<p>^This ^list ^of ^subtitles ^are ^taken ^from <a href="http://www.opensubtitles.org">^opensubtitles.org</a> ^| ^For ^feedback ^or ^suggestions ^contact <a href="http://www.reddit.com/message/compose/?to=indigo6alpha">^/u/indigo6alpha</a></p>
        <p class="toolbar">
            <a href="https://www.reddit.com/r/megalinks/comments/5xn69r/_/dejduhn">permalink</a>
        </p>
        
    </div>
</div>

<div class="comment" id="t1_delq50i">
    <p class="userinfo">
        <a
        class="toggle_hide_button"
        href="javascript:void(0)"
        onclick="toggle_collapse(this.parentElement.parentElement)">[-]
        </a>
        <a href="https://www.reddit.com/u/jethroguardian">jethroguardian</a>
        <span class="score"> | 1 points</span>
        <span class="timestamp"> | Mar 07 2017 03:10:44</span>
    </p>
    <div class="collapsible">
        <p>Thanks! Filename made me laugh.</p>
        <p class="toolbar">
            <a href="https://www.reddit.com/r/megalinks/comments/5xn69r/_/delq50i">permalink</a>
        </p>
        
    </div>
</div>
</body>

<script>
function toggle_collapse(comment_div)
{
    var button = comment_div.getElementsByClassName("toggle_hide_button")[0];
    var collapsible = comment_div.getElementsByClassName("collapsible")[0];
    if (collapsible.classList.contains("hidden"))
    {
        collapsible.classList.remove("hidden");
        button.innerText = "[-]";
    }
    else
    {
        collapsible.classList.add("hidden");
        button.innerText = "[+]";
    }
}
</script>
</html>
